<svg xmlns="http://www.w3.org/2000/svg" width="15" height="14" fill="none" viewBox="0 0 15 14"><path fill="#fff" fill-rule="evenodd" d="M3.573 2.036c.48-.178 1.427-.069 1.677.473.213.462.396 1.241.406 1.075.024-.369-.024-1.167.137-1.584.117-.304.347-.59.686-.69a1.92 1.92 0 0 1 .916-.056c.313.064.642.287.765.5.362.622.368 1.898.385 1.83.064-.272.07-1.229.283-1.584.141-.235.497-.445.687-.479.294-.052.656-.068.964-.008.25.05.586.344.677.487.22.344.342 1.316.38 1.658.015.141.073-.393.292-.736.406-.639 1.844-.763 1.898.64.026.653.02.623.02 1.063 0 .516-.012.828-.04 1.202-.03.4-.116 1.304-.24 1.742-.087.301-.372.978-.654 1.384 0 0-1.074 1.25-1.19 1.812-.118.563-.079.567-.103.965-.023.4.121.923.121.923s-.8.104-1.234.034c-.39-.062-.875-.84-1-1.078-.172-.328-.539-.265-.682-.023-.224.383-.709 1.07-1.05 1.113-.669.084-2.055.03-3.14.02 0 0 .185-1.01-.227-1.358-.305-.26-.83-.784-1.144-1.06l-.832-.92c-.283-.36-1.002-.93-1.243-1.986C.875 6.46.896 6 1.125 5.625c.232-.38.67-.589.854-.625.208-.042.692-.039.875.062.223.123.313.16.488.391.23.307.312.456.213.121-.076-.262-.322-.595-.434-.97-.109-.36-.4-.943-.38-1.526.008-.22.103-.77.832-1.042" clip-rule="evenodd"/><path stroke="#000" stroke-linejoin="round" stroke-width=".75" d="M3.573 2.036c.48-.178 1.427-.069 1.677.473.213.462.396 1.241.406 1.075.024-.369-.024-1.167.137-1.584.117-.304.347-.59.686-.69a1.92 1.92 0 0 1 .916-.056c.313.064.642.287.765.5.362.622.368 1.898.385 1.83.064-.272.07-1.229.283-1.584.141-.235.497-.445.687-.479.294-.052.656-.068.964-.008.25.05.586.344.677.487.22.344.342 1.316.38 1.658.015.141.073-.393.292-.736.406-.639 1.844-.763 1.898.64.026.653.02.623.02 1.063 0 .516-.012.828-.04 1.202-.03.4-.116 1.304-.24 1.742-.087.301-.372.978-.654 1.384 0 0-1.074 1.25-1.19 1.812-.118.563-.079.567-.103.965-.023.4.121.923.121.923s-.8.104-1.234.034c-.39-.062-.875-.84-1-1.078-.172-.328-.539-.265-.682-.023-.224.383-.709 1.07-1.05 1.113-.669.084-2.055.03-3.14.02 0 0 .185-1.01-.227-1.358-.305-.26-.83-.784-1.144-1.06l-.832-.92c-.283-.36-1.002-.93-1.243-1.986C.875 6.46.896 6 1.125 5.625c.232-.38.67-.589.854-.625.208-.042.692-.039.875.062.223.123.313.16.488.391.23.307.312.456.213.121-.076-.262-.322-.595-.434-.97-.109-.36-.4-.943-.38-1.526.008-.22.103-.77.832-1.042Z" clip-rule="evenodd"/><path stroke="#000" stroke-linecap="round" stroke-width=".75" d="M10.566 9.734V6.275M8.55 9.746l-.015-3.473m-1.98.032.02 3.426"/></svg>